<svg version="1" xmlns="http://www.w3.org/2000/svg" width="213.333" height="213.333" viewBox="0 0 160.000000 160.000000"><path d="M69.7.6c-.1.1-6.3.5-13.7.8-7.4.4-14.7.9-16.2 1.1C32 3.5 29 4.3 27.9 5.7c-1.7 2-1.2 7.3.8 8.8.9.7 1.8 2.5 2 4.1.3 1.6 1 3.2 1.7 3.6 1 .6 1.1 2 .2 7-1.3 7-1.3 6.8-.3 12 .8 4.1 4.7 12 7.5 15.4C41.9 59 54.1 69 55.1 69c1.5 0 13.3 7.7 14.3 9.3 1.7 2.6-.2 4.7-9.5 10.2-10.6 6.3-12.3 7.5-17.4 12.4-4.5 4.3-8.8 12.1-10.3 18.6-1.1 5-1.1 4.3.3 11.8 1 5.3 1 6.6-.2 7.3-.7.5-1.5 2-1.8 3.3-.2 1.3-1.2 3.3-2.2 4.3-1.8 2-1.9 6.3-.2 8.4 2.3 2.8 23.3 4.7 51.4 4.7 26.5-.1 40.9-1.1 49.8-3.4 3.5-.9 3.7-1.2 3.7-5.1 0-2.5-.6-4.5-1.5-5.2-.8-.6-1.7-2.2-2-3.5-.2-1.3-1.1-3.1-2-4.1-.8-.9-1.3-1.9-1-2.1.9-.9 1.9-8.4 1.7-13.3-.1-5.5-4.4-15.3-8.6-19.7-4.2-4.5-10.8-9.5-18.6-13.9-15.3-8.7-15.2-9.1 5.3-21.1 17.2-10 25.8-27.4 20.8-42.1-.8-2.1-.5-3 1-4.4 1.1-1 1.7-2.4 1.5-3.1-.3-.8.3-2.1 1.4-3 1.4-1.2 2-3 2-6 0-4.1-.1-4.3-4.1-5.3-4.7-1.3-8.1-1.7-24.4-2.6C93.8.8 70.1.3 69.7.6z"/></svg>